PathFileType	4	(X/Y/Z)	D:\TRACE\spotREDO_2-26-24\spot_justArm_Motion_3_5-platform.trc
DataRate	CameraRate	NumFrames	NumMarkers	Units	OrigDataRate	OrigDataStartFrame	OrigNumFrames
100.00	100.00	      36	5	mm	100.00	1751	      7000
Frame#	Time	Left_Front			Right_Front			Left_Aft			Right_Aft			Post			
		X1	Y1	Z1	X2	Y2	Z2	X3	Y3	Z3	X4	Y4	Z4	X5	Y5	Z5	

1751	17.500	-714.26080	25.81064	-567.08978	700.77563	30.17878	-482.73669	-785.03387	-26.34349	650.90747	784.25067	-20.31606	654.64429	-4.87727	672.62646	-941.98053	
1752	17.510	-714.38269	25.58511	-567.18640	700.66699	29.89165	-482.77676	-785.12494	-25.92680	650.76813	784.18030	-20.12296	654.46747	-5.27759	671.88568	-942.59595	
1753	17.520	-714.42633	25.19978	-567.29291	700.54205	29.62661	-482.90240	-785.16089	-25.60986	650.68616	783.94214	-19.55414	654.54608	-5.42411	671.41486	-943.09894	
1754	17.530	-714.52893	24.49187	-567.54260	700.24652	29.45760	-483.01550	-785.25220	-25.23003	650.66675	783.77594	-19.23209	654.60126	-5.46843	670.83276	-943.65039	
1755	17.540	-714.68097	24.11913	-567.62891	699.91449	29.20156	-483.32513	-785.40594	-24.73399	650.54077	783.53369	-18.62632	654.83655	-5.65431	670.12695	-944.31720	
1756	17.550	-714.67432	23.69265	-567.79675	699.83887	29.00162	-483.48206	-785.47626	-24.08758	650.39307	783.66809	-18.01293	654.72949	-5.65138	669.37622	-944.59027	
1757	17.560	-714.70929	23.33694	-567.94946	699.57574	28.58688	-483.72391	-785.64197	-23.78815	650.33813	783.66760	-17.52351	654.59204	-5.60140	668.79211	-944.93146	
1758	17.570	-714.76904	22.90967	-568.03564	699.65027	27.92735	-483.57925	-785.85480	-23.35962	650.21979	783.35614	-17.05832	654.44373	-5.62935	667.87848	-945.20111	
1759	17.580	-714.85291	22.42716	-568.25757	699.50708	27.40442	-483.69150	-785.73883	-22.90590	650.14209	783.22577	-16.51527	654.29327	-6.03216	667.13458	-945.86957	
1760	17.590	-714.94403	21.82831	-568.57196	699.42529	27.08772	-483.79529	-785.98584	-22.55959	649.91364	783.01398	-16.21880	654.20825	-6.03367	666.66425	-946.48413	
1761	17.600	-715.24695	21.47080	-568.47760	699.40320	26.83490	-483.88657	-786.20630	-21.83382	649.79572	782.88080	-16.01250	654.20160	-5.86151	665.65326	-947.27606	
1762	17.610	-715.34698	21.10600	-568.67426	699.33606	26.43699	-484.11804	-786.23822	-21.42089	649.76947	782.86835	-15.25418	654.09344	-5.80120	664.95349	-947.85950	
1763	17.620	-715.38220	20.69072	-568.81201	699.37726	25.94392	-484.19852	-786.44299	-20.89746	649.63812	782.90973	-14.52074	653.94751	-6.24404	664.33911	-948.85388	
1764	17.630	-715.58472	20.32904	-569.02625	699.21985	25.45490	-484.33215	-786.60828	-20.45081	649.55640	783.04956	-13.95947	653.88727	-6.34436	663.25385	-949.66724	
1765	17.640	-715.67719	19.78590	-569.11688	698.99652	25.09585	-484.74545	-786.64496	-19.85115	649.51868	782.79468	-13.59115	653.79407	-6.47256	662.62842	-950.48376	
1766	17.650	-715.65997	19.03607	-569.20636	698.88416	24.94625	-484.87842	-786.73798	-19.33538	649.37775	782.57379	-13.27485	653.62683	-6.75974	661.85095	-951.38757	
1767	17.660	-715.48334	18.57851	-569.35687	698.84045	24.60502	-485.06046	-786.68170	-18.82575	649.25806	782.35107	-12.76443	653.39734	-6.26015	660.85590	-951.81274	
1768	17.670	-715.65540	18.15505	-569.46979	698.97125	23.92294	-484.93359	-786.73773	-18.41919	649.21149	782.34106	-12.25066	653.22235	-6.42717	660.34619	-952.64941	
1769	17.680	-715.85663	17.76019	-569.66687	698.97260	23.44234	-485.00192	-786.84143	-17.93730	649.24432	782.43982	-11.92915	652.88483	-6.73162	659.33862	-953.31921	
1770	17.690	-715.95355	17.33900	-569.77405	698.88342	22.99174	-485.27026	-786.99768	-17.16940	648.92346	782.48083	-11.32493	652.92334	-6.75874	658.59076	-953.66193	
1771	17.700	-715.92450	16.65597	-569.84717	698.76788	22.45508	-485.44403	-787.05927	-16.79425	648.85181	782.22742	-10.91449	652.85687	-6.71864	657.69873	-954.12311	
1772	17.710	-716.06091	16.15891	-569.99780	698.74884	22.08601	-485.47766	-787.10248	-16.19959	648.77509	782.23364	-10.33669	652.53217	-6.94840	656.85413	-954.68860	
1773	17.720	-716.23328	15.80550	-570.14178	698.63843	21.79430	-485.71780	-787.08514	-15.84919	648.74207	782.19080	-9.44350	652.72095	-6.78581	656.14893	-955.51556	
1774	17.730	-716.34747	15.27178	-570.38892	698.56030	21.50789	-486.02350	-787.06830	-15.30267	648.58270	782.08862	-9.05229	652.63226	-6.96497	655.27313	-955.96576	
1775	17.740	-716.19995	14.73350	-570.51306	698.63232	21.02131	-486.01376	-787.14728	-14.62964	648.44769	782.05023	-8.40631	652.58594	-6.87713	654.52844	-956.68469	
1776	17.750	-716.26227	14.27466	-570.69373	698.55310	20.55551	-486.19086	-787.28253	-14.09470	648.30988	781.79272	-7.96664	652.49335	-6.96421	653.69403	-957.75385	
1777	17.760	-716.28192	13.73770	-570.96143	698.70197	19.97619	-485.98679	-787.36169	-13.67176	648.19550	781.93524	-7.39397	652.38995	-7.20789	652.80463	-958.38782	
1778	17.770	-716.39575	13.25470	-571.11621	698.47333	19.39894	-486.41199	-787.50549	-13.18851	648.11987	781.91571	-6.97379	652.21954	-7.32474	651.96667	-959.23657	
1779	17.780	-716.47577	12.77638	-571.17792	698.58002	19.01623	-486.48529	-787.58868	-12.62196	647.93713	781.51495	-6.38029	652.05499	-7.11679	651.03326	-960.29858	
1780	17.790	-716.66498	12.34023	-571.16071	698.50812	18.72943	-486.63409	-787.41162	-11.81835	647.73749	781.49823	-5.84653	652.01733	-7.23500	650.26154	-960.78906	
1781	17.800	-716.73602	11.80291	-571.42200	698.34296	18.30193	-486.77420	-787.41901	-11.43031	647.68219	781.58740	-5.35345	651.93512	-7.27016	649.50323	-961.43579	
1782	17.810	-716.64984	11.09907	-571.60809	698.25305	17.94810	-486.96506	-787.60547	-11.12731	647.47815	781.70038	-4.61653	651.61823	-7.38894	648.62115	-962.16992	
1783	17.820	-716.54797	10.62646	-571.75659	698.27704	17.35569	-487.17859	-787.67902	-10.51389	647.38391	781.46667	-4.28827	651.48315	-7.30138	647.77795	-962.70282	
1784	17.830	-716.72668	10.31276	-571.77502	698.06628	16.98503	-487.37640	-787.78986	-9.85933	647.25311	781.30536	-4.22488	651.11237	-7.56278	646.85168	-963.18176	
1785	17.840	-716.90149	9.85986	-571.89630	698.07623	16.48568	-487.39117	-787.80762	-9.43987	647.07080	781.38074	-3.73497	650.99103	-7.36996	646.03650	-963.36469	
1786	17.850	-716.97174	9.23215	-572.15100	697.99518	16.12514	-487.47092	-787.78784	-8.99079	646.96259	781.21466	-3.07959	650.85596	-7.50605	645.28455	-964.20514	
